<svg width="348" height="271" viewBox="0 0 348 271" fill="none" xmlns="http://www.w3.org/2000/svg">
<path fill-rule="evenodd" clip-rule="evenodd" d="M63.5285 269.75C29.5472 269.75 2 242.821 2 209.602C2 176.383 29.5472 149.453 63.5285 149.453C64.9735 149.453 66.4069 149.502 67.827 149.598C66.8403 144.104 66.3252 138.446 66.3252 132.668C66.3252 80.1356 108.898 37.5498 161.415 37.5498C203.341 37.5498 238.929 64.692 251.578 102.369C254.575 102.055 257.618 101.894 260.699 101.894C307.81 101.894 346 139.47 346 185.822C346 229.858 311.531 266.189 267.691 269.689V269.75H109.697H63.5285ZM97.0782 269.75H77.5999Z" fill="#1E293B"/>
<path d="M97.0782 269.75H77.5999M63.5285 269.75C29.5472 269.75 2 242.821 2 209.602C2 176.383 29.5472 149.453 63.5285 149.453C64.9735 149.453 66.4069 149.502 67.827 149.598C66.8403 144.104 66.3252 138.446 66.3252 132.668C66.3252 80.1356 108.898 37.5498 161.415 37.5498C203.341 37.5498 238.929 64.692 251.578 102.369C254.575 102.055 257.618 101.894 260.699 101.894C307.81 101.894 346 139.47 346 185.822C346 229.858 311.531 266.189 267.691 269.689V269.75H109.697H63.5285Z" stroke="#7C3AED" stroke-width="2.5" stroke-linecap="round"/>
<path fill-rule="evenodd" clip-rule="evenodd" d="M132.104 57.4391C132.104 147.784 213.388 222.229 318.05 232.28C304.934 248.424 284.679 259.376 261.603 261.097V261.15H73.6505C50.8463 261.15 12.75 251.532 12.75 209.417C12.75 167.301 42.3673 157.683 73.6505 157.683C74.9808 157.683 76.3004 157.725 77.6077 157.808C76.6994 153.082 76.5397 148.212 76.2252 143.246C74.1007 109.705 88.7191 67.4325 132.154 53.6748C132.119 54.929 132.104 56.1825 132.104 57.4391ZM161.524 198.789C153.013 198.789 146.114 205.614 146.114 214.033C146.114 222.452 153.013 229.277 161.524 229.277C170.036 229.277 176.935 222.452 176.935 214.033C176.935 205.614 170.036 198.789 161.524 198.789Z" fill="#C4B5FD"/>
<path d="M162.713 231.05C171.321 231.05 178.3 224.071 178.3 215.463C178.3 206.854 171.321 199.875 162.713 199.875C154.104 199.875 147.125 206.854 147.125 215.463C147.125 224.071 154.104 231.05 162.713 231.05Z" stroke="#7C3AED" stroke-width="2.5"/>
<path d="M119.175 182.675L139.6 167.255L119.175 152.575" stroke="#7C3AED" stroke-width="2.5" stroke-linecap="round" stroke-linejoin="round"/>
<path d="M206.25 182.675L186.9 167.255L206.25 152.575" stroke="#7C3AED" stroke-width="2.5" stroke-linecap="round" stroke-linejoin="round"/>
<path d="M189.05 65.5C207.271 70.3756 221.658 84.7831 226.675 103.125" stroke="#A78BFA" stroke-width="2.5" stroke-linecap="round"/>
<path d="M248.175 18.2C252.925 18.2 256.775 14.3496 256.775 9.6C256.775 4.85035 252.925 1 248.175 1C243.426 1 239.575 4.85035 239.575 9.6C239.575 14.3496 243.426 18.2 248.175 18.2Z" stroke="#A78BFA" stroke-width="2"/>
<path d="M335.25 62.2749C340 62.2749 343.85 58.6652 343.85 54.2124C343.85 49.7596 340 46.1499 335.25 46.1499C330.5 46.1499 326.65 49.7596 326.65 54.2124C326.65 58.6652 330.5 62.2749 335.25 62.2749Z" fill="#A78BFA"/>
<path d="M269.675 39.7002L292.971 63.3502M293.325 39.7002L270.029 63.3502L293.325 39.7002Z" stroke="#A78BFA" stroke-width="2.5" stroke-linecap="round" stroke-linejoin="round"/>
<path d="M6.30005 89.1499L22.425 106.35M22.425 89.1499L6.30005 106.35L22.425 89.1499Z" stroke="#A78BFA" stroke-width="2.5" stroke-linecap="round" stroke-linejoin="round"/>
<path d="M43.925 70.8748C48.6746 70.8748 52.525 67.0245 52.525 62.2748C52.525 57.5252 48.6746 53.6748 43.925 53.6748C39.1753 53.6748 35.325 57.5252 35.325 62.2748C35.325 67.0245 39.1753 70.8748 43.925 70.8748Z" fill="#A78BFA"/>
</svg>
