<svg width="665" height="487" viewBox="0 0 665 487" fill="none" xmlns="http://www.w3.org/2000/svg">
<path d="M547.851 0H131.043C111.86 0 96.3086 15.551 96.3086 34.734V451.543C96.3086 470.726 111.86 486.277 131.043 486.277H547.851C567.034 486.277 582.585 470.726 582.585 451.543V34.734C582.585 15.551 567.034 0 547.851 0Z" fill="#EDE9FE"/>
<g filter="url(#filter0_d_553_8613)">
<path d="M492.277 34.7341H23.367C13.7755 34.7341 6 42.5096 6 52.1012V138.936C6 148.528 13.7755 156.303 23.367 156.303H492.277C501.868 156.303 509.644 148.528 509.644 138.936V52.1012C509.644 42.5096 501.868 34.7341 492.277 34.7341Z" fill="white"/>
</g>
<path d="M245.665 62.5212H155.356C149.602 62.5212 144.936 67.1865 144.936 72.9415C144.936 78.6964 149.602 83.3617 155.356 83.3617H245.665C251.42 83.3617 256.085 78.6964 256.085 72.9415C256.085 67.1865 251.42 62.5212 245.665 62.5212Z" fill="#C4B5FD"/>
<path d="M308.187 107.676H155.357C149.602 107.676 144.937 112.341 144.937 118.096C144.937 123.851 149.602 128.516 155.357 128.516H308.187C313.941 128.516 318.607 123.851 318.607 118.096C318.607 112.341 313.941 107.676 308.187 107.676Z" fill="#DDD6FE"/>
<path d="M99.7819 45.1543H33.7872C24.1956 45.1543 16.4202 52.9298 16.4202 62.5213V128.516C16.4202 138.108 24.1956 145.883 33.7872 145.883H99.7819C109.373 145.883 117.149 138.108 117.149 128.516V62.5213C117.149 52.9298 109.373 45.1543 99.7819 45.1543Z" fill="#7C3AED"/>
<path d="M58.8726 106.911H65.8194L65.8958 104.237C65.8958 100.722 68.1119 99.8047 71.2449 98.8114C74.3877 97.9174 77.1539 96.0244 79.1254 93.4188C81.0969 90.8131 82.1664 87.6364 82.1722 84.3689C82.241 82.374 81.895 80.3865 81.1559 78.5322C80.4168 76.6779 79.3009 74.9973 77.8787 73.5966C76.4565 72.196 74.759 71.1058 72.8936 70.3951C71.0283 69.6845 69.0357 69.3688 67.0421 69.468C64.9351 69.4221 62.8409 69.8046 60.8862 70.5924C58.9316 71.3802 57.1573 72.5568 55.671 74.0508C54.1847 75.5449 53.0174 77.3253 52.2399 79.284C51.4624 81.2428 51.0908 83.339 51.1478 85.4457H58.3308C58.3035 84.2825 58.5087 83.1256 58.9343 82.0427C59.3599 80.9599 59.9973 79.9729 60.8093 79.1396C61.6213 78.3062 62.5914 77.6434 63.6629 77.1898C64.7343 76.7363 65.8855 76.5011 67.049 76.4982C68.0983 76.4374 69.1483 76.6031 70.1278 76.9842C71.1072 77.3653 71.9932 77.9528 72.7254 78.7068C73.4576 79.4608 74.0189 80.3635 74.3712 81.3537C74.7235 82.3439 74.8584 83.3983 74.7669 84.4454C74.7207 86.14 74.1314 87.775 73.0858 89.1094C72.0403 90.4439 70.5937 91.4073 68.9594 91.8576L66.4377 92.8579C63.9688 93.4528 61.8134 94.9531 60.3982 97.0618C58.983 99.1704 58.4113 101.734 58.7962 104.244L58.8726 106.911ZM62.3113 123.424C62.9915 123.448 63.6697 123.336 64.3057 123.093C64.9418 122.851 65.5227 122.483 66.0143 122.012C66.5059 121.542 66.898 120.977 67.1676 120.352C67.4372 119.727 67.5788 119.054 67.5839 118.374C67.5779 117.694 67.4356 117.022 67.1656 116.397C66.8956 115.773 66.5033 115.209 66.0118 114.739C65.5204 114.269 64.9397 113.902 64.3041 113.66C63.6686 113.418 62.991 113.306 62.3113 113.33C61.6316 113.306 60.954 113.418 60.3184 113.66C59.6829 113.902 59.1022 114.269 58.6108 114.739C58.1193 115.209 57.727 115.773 57.457 116.397C57.187 117.022 57.0447 117.694 57.0387 118.374C57.0438 119.054 57.1854 119.727 57.455 120.352C57.7246 120.977 58.1167 121.542 58.6083 122.012C59.0998 122.483 59.6808 122.851 60.3168 123.093C60.9529 123.336 61.6311 123.448 62.3113 123.424V123.424Z" fill="white"/>
<g filter="url(#filter1_d_553_8613)">
<path d="M172.723 184.09H641.633C646.239 184.09 650.656 185.92 653.913 189.177C657.17 192.434 659 196.851 659 201.457V288.292C659 292.898 657.17 297.316 653.913 300.573C650.656 303.83 646.239 305.659 641.633 305.659H172.723C168.117 305.659 163.7 303.83 160.443 300.573C157.186 297.316 155.356 292.898 155.356 288.292V201.457C155.356 196.851 157.186 192.434 160.443 189.177C163.7 185.92 168.117 184.09 172.723 184.09V184.09Z" fill="white"/>
</g>
<path d="M395.021 211.878H304.713C298.958 211.878 294.292 216.543 294.292 222.298C294.292 228.053 298.958 232.718 304.713 232.718H395.021C400.776 232.718 405.441 228.053 405.441 222.298C405.441 216.543 400.776 211.878 395.021 211.878Z" fill="#C4B5FD"/>
<path d="M457.542 257.032H304.713C298.958 257.032 294.292 261.697 294.292 267.452C294.292 273.207 298.958 277.872 304.713 277.872H457.542C463.297 277.872 467.963 273.207 467.963 267.452C467.963 261.697 463.297 257.032 457.542 257.032Z" fill="#DDD6FE"/>
<path d="M249.138 194.511H183.144C173.552 194.511 165.777 202.286 165.777 211.878V277.872C165.777 287.464 173.552 295.239 183.144 295.239H249.138C258.73 295.239 266.505 287.464 266.505 277.872V211.878C266.505 202.286 258.73 194.511 249.138 194.511Z" fill="#7C3AED"/>
<path d="M208.23 256.268H215.176L215.253 253.593C215.253 250.078 217.469 249.161 220.602 248.168C223.745 247.274 226.511 245.381 228.482 242.775C230.454 240.17 231.523 236.993 231.529 233.725C231.598 231.73 231.252 229.743 230.513 227.889C229.774 226.034 228.658 224.354 227.236 222.953C225.813 221.552 224.116 220.462 222.251 219.752C220.385 219.041 218.393 218.725 216.399 218.824C214.292 218.779 212.198 219.161 210.243 219.949C208.288 220.737 206.514 221.913 205.028 223.407C203.542 224.901 202.374 226.682 201.597 228.64C200.819 230.599 200.448 232.695 200.505 234.802H207.688C207.66 233.639 207.866 232.482 208.291 231.399C208.717 230.316 209.354 229.329 210.166 228.496C210.978 227.663 211.948 227 213.02 226.546C214.091 226.093 215.242 225.858 216.406 225.855C217.455 225.794 218.505 225.96 219.485 226.341C220.464 226.722 221.35 227.309 222.082 228.063C222.815 228.817 223.376 229.72 223.728 230.71C224.08 231.7 224.215 232.755 224.124 233.802C224.078 235.496 223.488 237.131 222.443 238.466C221.397 239.8 219.951 240.764 218.316 241.214L215.795 242.214C213.326 242.809 211.17 244.31 209.755 246.418C208.34 248.527 207.768 251.09 208.153 253.6L208.23 256.268ZM211.668 272.78C212.348 272.805 213.027 272.692 213.663 272.45C214.299 272.207 214.88 271.84 215.371 271.369C215.863 270.898 216.255 270.333 216.525 269.708C216.794 269.083 216.936 268.411 216.941 267.73C216.935 267.05 216.793 266.378 216.523 265.754C216.253 265.13 215.86 264.566 215.369 264.096C214.877 263.626 214.297 263.259 213.661 263.017C213.026 262.775 212.348 262.662 211.668 262.687C210.989 262.662 210.311 262.775 209.675 263.017C209.04 263.259 208.459 263.626 207.968 264.096C207.476 264.566 207.084 265.13 206.814 265.754C206.544 266.378 206.402 267.05 206.396 267.73C206.401 268.411 206.542 269.083 206.812 269.708C207.081 270.333 207.474 270.898 207.965 271.369C208.457 271.84 209.038 272.207 209.674 272.45C210.31 272.692 210.988 272.805 211.668 272.78V272.78Z" fill="white"/>
<g filter="url(#filter2_d_553_8613)">
<path d="M23.367 333.447H492.277C496.883 333.447 501.3 335.277 504.557 338.533C507.814 341.79 509.644 346.208 509.644 350.814V437.649C509.644 442.255 507.814 446.672 504.557 449.929C501.3 453.186 496.883 455.016 492.277 455.016H23.367C18.761 455.016 14.3436 453.186 11.0867 449.929C7.82973 446.672 6 442.255 6 437.649L6 350.814C6 346.208 7.82973 341.79 11.0867 338.533C14.3436 335.277 18.761 333.447 23.367 333.447V333.447Z" fill="white"/>
</g>
<path d="M245.665 361.234H155.356C149.602 361.234 144.936 365.899 144.936 371.654C144.936 377.409 149.602 382.075 155.356 382.075H245.665C251.42 382.075 256.085 377.409 256.085 371.654C256.085 365.899 251.42 361.234 245.665 361.234Z" fill="#C4B5FD"/>
<path d="M308.187 406.388H155.357C149.602 406.388 144.937 411.053 144.937 416.808C144.937 422.563 149.602 427.229 155.357 427.229H308.187C313.941 427.229 318.607 422.563 318.607 416.808C318.607 411.053 313.941 406.388 308.187 406.388Z" fill="#DDD6FE"/>
<path d="M99.7819 343.867H33.7872C24.1956 343.867 16.4202 351.642 16.4202 361.234V427.229C16.4202 436.82 24.1956 444.596 33.7872 444.596H99.7819C109.373 444.596 117.149 436.82 117.149 427.229V361.234C117.149 351.642 109.373 343.867 99.7819 343.867Z" fill="#7C3AED"/>
<path d="M58.8726 405.624H65.8194L65.8958 402.95C65.8958 399.435 68.1119 398.518 71.2449 397.524C74.3877 396.63 77.1539 394.737 79.1254 392.132C81.0969 389.526 82.1664 386.349 82.1722 383.082C82.241 381.087 81.895 379.099 81.1559 377.245C80.4168 375.391 79.3009 373.71 77.8787 372.31C76.4565 370.909 74.759 369.819 72.8936 369.108C71.0283 368.397 69.0357 368.082 67.0421 368.181C64.9351 368.135 62.8409 368.518 60.8862 369.305C58.9316 370.093 57.1573 371.27 55.671 372.764C54.1847 374.258 53.0174 376.038 52.2399 377.997C51.4624 379.956 51.0908 382.052 51.1478 384.159H58.3308C58.3035 382.995 58.5087 381.838 58.9343 380.756C59.3599 379.673 59.9973 378.686 60.8093 377.852C61.6213 377.019 62.5914 376.356 63.6629 375.903C64.7343 375.449 65.8855 375.214 67.049 375.211C68.0983 375.15 69.1483 375.316 70.1278 375.697C71.1072 376.078 71.9932 376.666 72.7254 377.42C73.4576 378.174 74.0189 379.076 74.3712 380.067C74.7235 381.057 74.8584 382.111 74.7669 383.158C74.7207 384.853 74.1314 386.488 73.0858 387.822C72.0403 389.157 70.5937 390.12 68.9594 390.57L66.4377 391.571C63.9688 392.166 61.8134 393.666 60.3982 395.775C58.983 397.883 58.4113 400.446 58.7962 402.957L58.8726 405.624ZM62.3113 422.137C62.9915 422.161 63.6697 422.048 64.3057 421.806C64.9418 421.564 65.5227 421.196 66.0143 420.725C66.5059 420.254 66.898 419.69 67.1676 419.065C67.4372 418.44 67.5788 417.767 67.5839 417.086C67.5779 416.406 67.4356 415.734 67.1656 415.11C66.8956 414.486 66.5033 413.922 66.0118 413.452C65.5204 412.982 64.9397 412.615 64.3041 412.373C63.6686 412.131 62.991 412.019 62.3113 412.043C61.6316 412.019 60.954 412.131 60.3184 412.373C59.6829 412.615 59.1022 412.982 58.6108 413.452C58.1193 413.922 57.727 414.486 57.457 415.11C57.187 415.734 57.0447 416.406 57.0387 417.086C57.0438 417.767 57.1854 418.44 57.455 419.065C57.7246 419.69 58.1167 420.254 58.6083 420.725C59.0998 421.196 59.6808 421.564 60.3168 421.806C60.9529 422.048 61.6311 422.161 62.3113 422.137V422.137Z" fill="white"/>
<defs>
<filter id="filter0_d_553_8613" x="0" y="31.7341" width="515.644" height="133.569" filterUnits="userSpaceOnUse" color-interpolation-filters="sRGB">
<feFlood flood-opacity="0" result="BackgroundImageFix"/>
<feColorMatrix in="SourceAlpha" type="matrix" values="0 0 0 0 0 0 0 0 0 0 0 0 0 0 0 0 0 0 127 0" result="hardAlpha"/>
<feOffset dy="3"/>
<feGaussianBlur stdDeviation="3"/>
<feColorMatrix type="matrix" values="0 0 0 0 0 0 0 0 0 0 0 0 0 0 0 0 0 0 0.161 0"/>
<feBlend mode="normal" in2="BackgroundImageFix" result="effect1_dropShadow_553_8613"/>
<feBlend mode="normal" in="SourceGraphic" in2="effect1_dropShadow_553_8613" result="shape"/>
</filter>
<filter id="filter1_d_553_8613" x="149.356" y="181.09" width="515.644" height="133.569" filterUnits="userSpaceOnUse" color-interpolation-filters="sRGB">
<feFlood flood-opacity="0" result="BackgroundImageFix"/>
<feColorMatrix in="SourceAlpha" type="matrix" values="0 0 0 0 0 0 0 0 0 0 0 0 0 0 0 0 0 0 127 0" result="hardAlpha"/>
<feOffset dy="3"/>
<feGaussianBlur stdDeviation="3"/>
<feColorMatrix type="matrix" values="0 0 0 0 0 0 0 0 0 0 0 0 0 0 0 0 0 0 0.161 0"/>
<feBlend mode="normal" in2="BackgroundImageFix" result="effect1_dropShadow_553_8613"/>
<feBlend mode="normal" in="SourceGraphic" in2="effect1_dropShadow_553_8613" result="shape"/>
</filter>
<filter id="filter2_d_553_8613" x="0" y="330.447" width="515.644" height="133.569" filterUnits="userSpaceOnUse" color-interpolation-filters="sRGB">
<feFlood flood-opacity="0" result="BackgroundImageFix"/>
<feColorMatrix in="SourceAlpha" type="matrix" values="0 0 0 0 0 0 0 0 0 0 0 0 0 0 0 0 0 0 127 0" result="hardAlpha"/>
<feOffset dy="3"/>
<feGaussianBlur stdDeviation="3"/>
<feColorMatrix type="matrix" values="0 0 0 0 0 0 0 0 0 0 0 0 0 0 0 0 0 0 0.161 0"/>
<feBlend mode="normal" in2="BackgroundImageFix" result="effect1_dropShadow_553_8613"/>
<feBlend mode="normal" in="SourceGraphic" in2="effect1_dropShadow_553_8613" result="shape"/>
</filter>
</defs>
</svg>
