<svg width="214" height="212" viewBox="0 0 214 212" fill="none" xmlns="http://www.w3.org/2000/svg">
<path d="M84.6738 167.348C130.333 167.348 167.348 130.333 167.348 84.6738C167.348 39.0143 130.333 2 84.6738 2C39.0143 2 2 39.0143 2 84.6738C2 130.333 39.0143 167.348 84.6738 167.348Z" stroke="#7C3AED" stroke-width="2.5"/>
<path d="M71.4265 148.823C75.7668 149.624 80.1826 150.041 84.6738 150.072C120.793 150.072 150.073 120.792 150.073 84.6736C150.073 48.5549 120.793 19.2749 84.6738 19.2749C75.3955 19.2749 66.5685 21.2071 58.5731 24.691C44.6791 30.7453 33.2966 41.4856 26.4221 54.9157C21.8529 63.8421 19.2751 73.9568 19.2751 84.6736C19.2751 94.397 21.3972 103.625 25.2033 111.919C27.9207 117.841 31.4964 123.287 35.7713 128.097" stroke="#7C3AED" stroke-width="2.5" stroke-linecap="round"/>
<path d="M43.4539 135.45C48.7551 139.759 54.7443 143.254 61.2311 145.746" stroke="#7C3AED" stroke-width="2.5" stroke-linecap="round"/>
<path d="M152.54 150.072L167.348 164.88" stroke="#7C3AED" stroke-width="2.5"/>
<path fill-rule="evenodd" clip-rule="evenodd" d="M164.955 162.487C160.284 167.158 160.284 174.731 164.955 179.402L192.312 206.759C196.983 211.43 204.556 211.43 209.227 206.759C213.898 202.088 213.898 194.515 209.227 189.844L181.87 162.487C177.199 157.816 169.626 157.816 164.955 162.487Z" fill="#C4B5FD" stroke="#7C3AED" stroke-width="2.5"/>
<path d="M177.219 167.347L204.366 194.494" stroke="white" stroke-width="2.5" stroke-linecap="round"/>
<path fill-rule="evenodd" clip-rule="evenodd" d="M68.6328 56.2933C68.6328 84.9156 91.8358 108.119 120.458 108.119C126.081 108.119 131.494 107.223 136.564 105.567C128.289 126.102 108.174 140.598 84.674 140.598C53.7881 140.598 28.7502 115.56 28.7502 84.6738C28.7502 56.687 49.3086 33.5018 76.1475 29.396C71.3794 37.2395 68.6328 46.4456 68.6328 56.2933Z" fill="#C4B5FD"/>
<path d="M85.9077 39.0181C82.7651 39.0181 79.6948 39.3272 76.7254 39.9168M67.7559 42.6608C50.8734 49.7553 39.0181 66.447 39.0181 85.9077" stroke="#A78BFA" stroke-width="2.5" stroke-linecap="round"/>
</svg>
