<svg width="250" height="200" viewBox="0 0 250 200" fill="none" xmlns="http://www.w3.org/2000/svg">
<path d="M167 148H189.428M64 148H85.4541H64ZM51.1279 148H58H51.1279ZM194.128 148H197H194.128Z" stroke="#7C3AED" stroke-width="2.5" stroke-linecap="round" stroke-linejoin="round"/>
<path d="M98 43.3027L109.1 55.7559M150.1 43.3027L139 55.7559L150.1 43.3027ZM124 39V55.7559V39Z" stroke="#A78BFA" stroke-width="2.5" stroke-linecap="round" stroke-linejoin="round"/>
<path fill-rule="evenodd" clip-rule="evenodd" d="M92.7975 71H155.404L149.798 79.4098L157.273 85.0164H90.9287L99.3385 79.4098L92.7975 71Z" fill="#C4B5FD"/>
<rect x="89" y="83" width="71" height="75" rx="2" fill="white"/>
<path fill-rule="evenodd" clip-rule="evenodd" d="M93.5852 124.006V89.6453C93.5852 88.2297 94.7455 87.082 96.1767 87.082L157.153 151.164C157.153 153.052 155.642 154.582 153.778 154.582H96.9601C95.0962 154.582 93.5852 153.052 93.5852 151.164V138.395V134.93V124.006ZM93.5852 131.425V127.577Z" fill="#C4B5FD"/>
<path d="M90 124.463V86.8853C90 85.3371 91.2705 84.082 92.8377 84.082H157.761C158.782 84.082 159.609 84.9187 159.609 85.9509V154.164C159.609 156.228 157.954 157.902 155.913 157.902H93.6956C91.6546 157.902 90 156.228 90 154.164V140.199V136.41M90 132.576V128.368" stroke="#7C3AED" stroke-width="2.5" stroke-linecap="round"/>
<path d="M91.8631 84.082V72.8689C91.8631 71.8368 92.614 71.0001 93.5403 71.0001H155.596C156.522 71.0001 157.273 71.8368 157.273 72.8689V84.082" stroke="#7C3AED" stroke-width="2.5"/>
<path d="M109.15 103.705C110.956 103.705 112.42 102.241 112.42 100.435C112.42 98.6283 110.956 97.1641 109.15 97.1641C107.344 97.1641 105.88 98.6283 105.88 100.435C105.88 102.241 107.344 103.705 109.15 103.705Z" fill="#C4B5FD" stroke="#7C3AED" stroke-width="2.5" stroke-linecap="round"/>
<path d="M139.986 103.705C141.792 103.705 143.257 102.241 143.257 100.435C143.257 98.6283 141.792 97.1641 139.986 97.1641C138.18 97.1641 136.716 98.6283 136.716 100.435C136.716 102.241 138.18 103.705 139.986 103.705Z" fill="#C4B5FD" stroke="#7C3AED" stroke-width="2.5" stroke-linecap="round"/>
<path d="M139.519 103.705C139.519 111.962 132.825 118.656 124.568 118.656C116.311 118.656 109.617 111.962 109.617 103.705" stroke="#7C3AED" stroke-width="2.5" stroke-linecap="round"/>
<path d="M92.8546 71.9316L99.433 78.4253C99.826 78.8133 99.8301 79.4464 99.4421 79.8395C99.375 79.9075 99.2985 79.9656 99.2148 80.0118L91.8631 84.0821" stroke="#7C3AED" stroke-width="2.5" stroke-linecap="round"/>
<path d="M156.44 71.999L150.145 78.4195C149.758 78.8138 149.765 79.447 150.159 79.8336C150.225 79.8982 150.299 79.9533 150.38 79.9975L157.867 84.0818" stroke="#7C3AED" stroke-width="2.5" stroke-linecap="round"/>
</svg>
